<?xml version="1.0" encoding="utf-8"?>
<!-- Generator: Adobe Illustrator 22.0.0, SVG Export Plug-In . SVG Version: 6.00 Build 0)  -->
<svg version="1.1" id="Слой_1" xmlns="http://www.w3.org/2000/svg" xmlns:xlink="http://www.w3.org/1999/xlink" x="0px" y="0px"
	 viewBox="0 0 27.5 40" style="enable-background:new 0 0 27.5 40;" xml:space="preserve">
<style type="text/css">
	.st0{fill-rule:evenodd;clip-rule:evenodd;fill:#0D0D0D;}
</style>
<g id="bulb">
	<g>
		<path class="st0" d="M13.8,0C6.2,0,0,6.2,0,13.7c0,5,4.6,10.4,6.3,15.1c2.5,7,2.2,11.2,7.5,11.2c5.3,0,5-4.2,7.5-11.2
			c1.7-4.7,6.3-10.1,6.3-15.1C27.5,6.2,21.3,0,13.8,0z M13.8,37.5c-1.3,0-1.8-0.1-2.5-1.6l5.3-0.7C15.8,37.3,15.2,37.5,13.8,37.5z
			 M17.4,32.5c-0.2,0.6-0.3,1-0.4,1.5l-6.2,0.8c-0.2-0.6-0.5-1.4-0.7-2.4c0,0,0,0,0,0l7.7-1C17.7,31.7,17.5,32.1,17.4,32.5z
			 M18.2,30.1l-8.5,1.1c-0.2-0.8-0.5-1.5-0.8-2.4h9.7C18.5,29.2,18.3,29.6,18.2,30.1z M19.6,26.3H7.9c-0.6-1.3-1.4-2.7-2.1-4
			c-1.6-2.9-3.3-5.9-3.3-8.5c0-6.2,5-11.2,11.3-11.2S25,7.5,25,13.7c0,2.5-1.7,5.6-3.3,8.5C20.9,23.6,20.2,24.9,19.6,26.3z
			 M13.8,6.3c-4.1,0-7.5,3.4-7.5,7.5c0,0.3,0.3,0.6,0.6,0.6s0.6-0.3,0.6-0.6c0-3.4,2.8-6.2,6.3-6.2c0.3,0,0.6-0.3,0.6-0.6
			C14.4,6.5,14.1,6.3,13.8,6.3z"/>
	</g>
</g>
</svg>
